<svg width="232" height="59" viewBox="0 0 232 59" fill="none" xmlns="http://www.w3.org/2000/svg">
<g id="Group">
<path id="Vector" d="M53.5797 33.6628H0.0975571V27.9338H53.5797V33.6628ZM26.7728 1.36621C39.6571 1.36621 47.8998 5.72904 47.9328 12.7601C47.8998 19.8902 39.6571 24.1539 26.7728 24.1539C13.8885 24.1539 5.61276 19.8883 5.61276 12.7601C5.61276 5.63187 13.9214 1.36621 26.7728 1.36621ZM26.7728 37.5028C39.3975 37.4698 47.0552 41.2788 47.0882 48.1815C47.0552 55.0513 39.3975 58.8933 26.7728 58.8603C13.9543 58.8933 6.32759 55.0513 6.32759 48.1815C6.32759 41.3118 13.9543 37.4698 26.7728 37.5028ZM26.7728 18.4891C35.341 18.5221 40.4688 16.536 40.4688 12.7601C40.4688 8.98415 35.341 7.03107 26.7728 7.03107C18.2045 7.03107 13.0768 9.01719 13.1426 12.7601C13.0787 16.536 18.2045 18.5221 26.7728 18.4891ZM26.7728 53.2595C35.1783 53.2926 39.8198 51.5338 39.8837 48.1815C39.8179 44.7302 35.1783 42.9734 26.7728 42.9734C18.3673 42.9734 13.6289 44.7321 13.6618 48.1815C13.6289 51.5338 18.2375 53.2926 26.7728 53.2595Z" fill="#333333"/>
<path id="Vector_2" d="M60.86 23.3747H99.3502C100.584 17.156 100.714 12.4686 100.714 8.33316H67.4813V2.53809H107.918V7.09525C107.951 11.5883 107.951 16.4719 106.491 23.3728H114.474V29.1678H60.8619V23.3728L60.86 23.3747ZM74.556 40.3032H100.584V33.5307H107.725V58.1432H67.4833V33.5307H74.5579V40.3032H74.556ZM100.584 52.284V45.904H74.556V52.284H100.584Z" fill="#333333"/>
<path id="Vector_3" d="M138.822 4.29675C147.617 4.29675 154.107 12.3714 154.14 25.0673C154.107 37.8623 147.617 45.9039 138.822 45.9039C130.027 45.9039 123.472 37.8623 123.505 25.0673C123.472 12.3694 129.93 4.29675 138.822 4.29675ZM138.822 39.3917C143.754 39.3587 147.131 34.1175 147.131 25.0673C147.131 16.0171 143.756 10.807 138.822 10.807C133.888 10.807 130.45 16.0812 130.45 25.0673C130.45 34.0533 133.857 39.3587 138.822 39.3917ZM170.431 58.9263H163.161V0H170.431V58.9263Z" fill="#333333"/>
<path id="Vector_4" d="M219.642 40.4995L215.682 46.2285C208.737 43.2007 203.676 37.0481 200.981 29.5603C198.288 37.6349 193.128 44.4056 186.28 47.6607L182.126 41.9958C191.376 37.6991 197.151 26.7269 197.184 16.7323V11.7845H184.267V5.79313H217.37V11.7845H204.518V16.7323C204.518 26.3693 210.165 36.5272 219.642 40.4975V40.4995ZM223.925 0H231.195V58.8622H223.925V0Z" fill="#333333"/>
</g>
</svg>
