<svg width="236" height="59" viewBox="0 0 236 59" fill="none" xmlns="http://www.w3.org/2000/svg">
<g id="Group">
<path id="Vector" d="M53.58 32.9558H0.0977936V27.2268H53.58V32.9558ZM26.7749 0.661133C39.6593 0.661133 47.902 5.02396 47.935 12.055C47.902 19.1852 39.6593 23.4489 26.7749 23.4489C13.8906 23.4489 5.61493 19.1832 5.61493 12.055C5.61493 4.92679 13.9236 0.661133 26.7749 0.661133ZM26.7749 36.7978C39.3997 36.7647 47.0574 40.5737 47.0903 47.4765C47.0574 54.3462 39.3997 58.1882 26.7749 58.1552C13.9565 58.1882 6.32976 54.3462 6.32976 47.4765C6.32976 40.6067 13.9565 36.7647 26.7749 36.7978ZM26.7749 17.784C35.3432 17.817 40.4709 15.8309 40.4709 12.055C40.4709 8.27907 35.3432 6.326 26.7749 6.326C18.2067 6.326 13.079 8.31211 13.1448 12.055C13.0809 15.8309 18.2067 17.817 26.7749 17.784ZM26.7749 52.5545C35.1805 52.5875 39.822 50.8288 39.8859 47.4765C39.82 44.0251 35.1805 42.2683 26.7749 42.2683C18.3694 42.2683 13.6311 44.027 13.664 47.4765C13.6311 50.8288 18.2397 52.5875 26.7749 52.5545Z" fill="#333333"/>
<path id="Vector_2" d="M60.8595 22.6696H99.3497C100.584 16.4509 100.714 11.7635 100.714 7.62808H67.4809V1.83301H107.918V6.39017C107.951 10.8832 107.951 15.7668 106.49 22.6677H114.473V28.4628H60.8615V22.6677L60.8595 22.6696ZM74.5555 39.5982H100.584V32.8256H107.724V57.4381H67.4828V32.8256H74.5575V39.5982H74.5555ZM100.584 51.5789V45.1989H74.5555V51.5789H100.584Z" fill="#333333"/>
<path id="Vector_3" d="M175.236 51.0582H121.624V45.0027H175.236V51.0582ZM126.037 4.76367H170.564V10.5587H161.995V29.3121H170.368V35.0411H126.231V29.3121H134.474V10.5587H126.035V4.76367H126.037ZM154.855 29.3121V10.5587H141.678V29.3121H154.855Z" fill="#333333"/>
<path id="Vector_4" d="M235.998 51.3182H182.386V45.3269H205.493V35.7559H188.748V16.4817H222.499V9.1883H188.618V3.32715H229.638V22.2107H195.952V29.8286H231.002V35.7539H212.633V45.3249H236V51.3163L235.998 51.3182Z" fill="#333333"/>
</g>
</svg>
