<svg width="163" height="21" viewBox="0 0 163 21" fill="none" xmlns="http://www.w3.org/2000/svg">
<g id="Layer_1" clip-path="url(#clip0_475_2185)">
<path id="Vector" d="M15.8433 5.58739C13.6377 5.58739 13.1121 7.19271 9.99998 8.67053C7.5083 9.85409 4.65901 8.45474 4.43945 5.84078C4.21823 3.94774 5.75681 1.96642 7.81103 1.83891C7.93412 1.834 8.05887 1.83073 8.18195 1.83237C9.14003 1.8242 10.0964 2.29173 10.7634 2.8737C11.8064 3.78263 14.5043 3.35105 14.5043 1.98767C14.5043 0.923448 12.6829 0.38398 11.4887 0.163289C5.32601 -0.981036 -0.560527 4.03765 0.0432631 10.5668C0.0432631 10.5734 0.0432631 10.5799 0.0432631 10.5848C0.214586 12.7868 1.18265 14.9839 3.0173 16.6252H3.01897C3.36993 16.9603 3.7525 17.2628 4.1517 17.539C4.14172 17.5521 2.51997 20.1841 2.50999 20.1988C2.38025 20.408 2.38357 20.9688 3.04392 20.9933C4.85196 21.0587 6.26579 20.6124 7.39686 19.2948C7.51995 19.1509 7.62806 18.9972 7.72786 18.837C8.12207 18.2011 9.28973 16.3113 9.93178 15.2716C11.9311 15.2471 13.8406 14.0963 14.792 12.4027C15.1314 12.4893 15.4723 12.5776 15.8117 12.6642C14.8004 14.5998 12.8526 15.9828 10.5555 16.2345L9.91016 17.2808C12.8193 17.2693 15.5954 15.5152 16.8213 12.9241C17.1573 13.0108 17.4933 13.0974 17.8276 13.1841C16.4021 16.3391 13.0106 18.497 9.29639 18.2747L8.70424 19.2294C9.96671 19.3683 11.2658 19.267 12.4867 18.9237C15.2977 18.1504 17.6879 16.0792 18.8273 13.4391C19.0186 13.0124 19.2797 12.2833 19.471 11.3172C20.1363 7.96432 18.5894 5.58412 15.8416 5.58412L15.8433 5.58739ZM11.3007 9.96198C11.0728 9.71513 11.3323 9.18057 12.0958 8.63293C12.7694 8.14904 13.4181 7.639 14.0103 8.33214C14.7438 9.19038 11.665 10.356 11.3007 9.96198Z" fill="white"/>
<path id="Vector_2" d="M142.48 11.0655L149.369 17.835H145.938L140.613 12.6022L139.233 13.7416V17.835H136.699V5.38477H139.233V10.6323L140.758 9.37192L145.597 5.38477H149.369L142.48 11.0655Z" fill="white"/>
<path id="Vector_3" d="M119.767 5.38477H112.021C110.663 5.38477 109.559 6.47024 109.559 7.8042V15.4172C109.559 16.7545 110.663 17.8367 112.021 17.8367H119.767C121.127 17.8367 122.228 16.7545 122.228 15.4172V7.8042C122.228 6.47024 121.127 5.38477 119.767 5.38477ZM119.694 15.4516H112.092V7.76823H119.694V15.4516Z" fill="white"/>
<path id="Vector_4" d="M152.865 7.76823V10.4182H160.538C161.897 10.4182 163 11.502 163 12.8376V15.4172C163 16.7528 161.897 17.8367 160.538 17.8367H151.056V15.4532H160.467V12.8033H152.794C151.435 12.8033 150.332 11.7194 150.332 10.3838V7.8042C150.332 6.46861 151.435 5.38477 152.794 5.38477H162.276V7.76823H152.865Z" fill="white"/>
<path id="Vector_5" d="M38.3432 7.8042C38.3432 6.47024 37.2421 5.38477 35.8815 5.38477H25.6736V17.835H35.8815C37.2421 17.835 38.3432 16.7528 38.3432 15.4156V12.836C38.3432 12.388 38.2201 11.9679 37.9989 11.6083C38.2201 11.2486 38.3432 10.8285 38.3432 10.3806V7.80093V7.8042ZM28.2085 7.76823H35.8099V10.4182H28.2085V7.76823ZM35.8099 15.4516H28.2085V12.8016H35.8099V15.4516Z" fill="white"/>
<path id="Vector_6" d="M67.6046 5.38477H58.4829V7.76823H67.5314V10.4182H59.8585C58.5012 10.4182 57.3967 11.5036 57.3967 12.8376V15.4172C57.3967 16.7545 58.5012 17.8367 59.8585 17.8367H67.6046C68.9652 17.8367 70.0663 16.7545 70.0663 15.4172V7.8042C70.0663 6.47024 68.9652 5.38477 67.6046 5.38477ZM67.5314 15.4516H59.93V12.8016H67.5314V15.4516Z" fill="white"/>
<path id="Vector_7" d="M51.9242 12.8013C53.2848 12.8013 54.3859 11.7191 54.3859 10.3819V7.80224C54.3859 6.46829 53.2848 5.38281 51.9242 5.38281H44.178C42.8208 5.38281 41.7163 6.46829 41.7163 7.80224V15.4153C41.7163 16.7525 42.8208 17.8347 44.178 17.8347H54.0233V15.4512H44.2512V12.8013H51.9242ZM44.2512 7.76791H51.8527V10.4178H44.2512V7.76791Z" fill="white"/>
<path id="Vector_8" d="M85.66 5.38477H75.9012C74.5422 5.38477 73.4395 6.46697 73.4395 7.8042V17.8367H75.9727V7.76987H79.5123V17.8367H82.0455V7.76987H85.5851V17.8367H88.1184V7.8042C88.1184 6.46861 87.0156 5.38477 85.6566 5.38477H85.66Z" fill="white"/>
<path id="Vector_9" d="M103.642 5.74121V15.808H100.103V5.74121H97.5694V15.808H94.0298V5.74121H91.4966V15.7737C91.4966 17.1093 92.5977 18.1931 93.9583 18.1931H103.717C105.076 18.1931 106.179 17.1109 106.179 15.7737V5.74121H103.646H103.642Z" fill="white"/>
<path id="Vector_10" d="M135.013 5.38445V7.76791H128.135V17.8347H125.602V7.80224C125.602 6.46665 126.704 5.38281 128.063 5.38281H135.013V5.38445Z" fill="white"/>
</g>
<defs>
<clipPath id="clip0_475_2185">
<rect width="163" height="21" fill="white"/>
</clipPath>
</defs>
</svg>
