<svg width="205" height="27" viewBox="0 0 205 27" fill="none" xmlns="http://www.w3.org/2000/svg">
<g id="Layer_1" clip-path="url(#clip0_45_727)">
<path id="Vector" d="M19.9255 7.18379C17.1516 7.18379 16.4905 9.24778 12.5765 11.1478C9.44283 12.6695 5.85937 10.8704 5.58323 7.50957C5.30501 5.07566 7.24004 2.52825 9.82356 2.36431C9.97836 2.358 10.1353 2.3538 10.2901 2.3559C11.495 2.34539 12.6979 2.94651 13.5367 3.69476C14.8484 4.86338 18.2415 4.3085 18.2415 2.55558C18.2415 1.18729 15.9508 0.493689 14.4488 0.209943C6.69823 -1.26133 -0.705083 5.19126 0.0542849 13.5859C0.0542849 13.5943 0.0542849 13.6027 0.0542849 13.6091C0.269753 16.4402 1.48725 19.2651 3.79464 21.3753H3.79673C4.23813 21.8062 4.71927 22.195 5.22133 22.5502C5.20878 22.567 3.16916 25.951 3.15661 25.9699C2.99344 26.2389 2.99762 26.9598 3.82811 26.9914C6.10203 27.0754 7.88017 26.5016 9.30267 24.8076C9.45747 24.6226 9.59345 24.425 9.71896 24.219C10.2147 23.4014 11.6833 20.9717 12.4908 19.635C15.0053 19.6034 17.4068 18.1238 18.6034 15.9463C19.0301 16.0577 19.459 16.1712 19.8857 16.2826C18.6138 18.7711 16.1642 20.5493 13.2752 20.8729L12.4636 22.2181C16.1223 22.2034 19.6138 19.9481 21.1555 16.6168C21.5781 16.7282 22.0006 16.8396 22.4211 16.951C20.6283 21.0075 16.3629 23.7819 11.6916 23.496L10.9469 24.7235C12.5347 24.9021 14.1685 24.7718 15.704 24.3304C19.2393 23.3363 22.2454 20.6733 23.6784 17.2788C23.9189 16.7303 24.2474 15.7928 24.4879 14.5507C25.3247 10.2398 23.3792 7.17958 19.9234 7.17958L19.9255 7.18379ZM14.2124 12.8083C13.9258 12.4909 14.2522 11.8036 15.2124 11.0995C16.0596 10.4773 16.8754 9.82157 17.6202 10.7127C18.5427 11.8162 14.6705 13.3148 14.2124 12.8083Z" fill="#A0A0A0"/>
<path id="Vector_2" d="M179.192 14.2277L187.857 22.9313H183.541L176.845 16.2034L175.108 17.6683V22.9313H171.922V6.92383H175.108V13.6707L177.027 12.0502L183.112 6.92383H187.857L179.192 14.2277Z" fill="#A0A0A0"/>
<path id="Vector_3" d="M150.627 6.92383H140.885C139.178 6.92383 137.789 8.31944 137.789 10.0345V19.8227C137.789 21.542 139.178 22.9334 140.885 22.9334H150.627C152.338 22.9334 153.723 21.542 153.723 19.8227V10.0345C153.723 8.31944 152.338 6.92383 150.627 6.92383ZM150.535 19.8668H140.975V9.98828H150.535V19.8668Z" fill="#A0A0A0"/>
<path id="Vector_4" d="M192.254 9.98828V13.3953H201.904C203.613 13.3953 205 14.7888 205 16.506V19.8227C205 21.5399 203.613 22.9334 201.904 22.9334H189.978V19.8689H201.814V16.4619H192.164C190.455 16.4619 189.068 15.0684 189.068 13.3512V10.0345C189.068 8.31734 190.455 6.92383 192.164 6.92383H204.09V9.98828H192.254Z" fill="#A0A0A0"/>
<path id="Vector_5" d="M48.2232 10.0345C48.2232 8.31944 46.8384 6.92383 45.1272 6.92383H32.2891V22.9313H45.1272C46.8384 22.9313 48.2232 21.5399 48.2232 19.8206V16.5039C48.2232 15.928 48.0684 15.3879 47.7902 14.9255C48.0684 14.4631 48.2232 13.9229 48.2232 13.347V10.0303V10.0345ZM35.4771 9.98828H45.0372V13.3953H35.4771V9.98828ZM45.0372 19.8668H35.4771V16.4598H45.0372V19.8668Z" fill="#A0A0A0"/>
<path id="Vector_6" d="M85.0242 6.92383H73.5521V9.98828H84.9321V13.3953H75.2821C73.5751 13.3953 72.186 14.7909 72.186 16.506V19.8227C72.186 21.542 73.5751 22.9334 75.2821 22.9334H85.0242C86.7354 22.9334 88.1202 21.542 88.1202 19.8227V10.0345C88.1202 8.31944 86.7354 6.92383 85.0242 6.92383ZM84.9321 19.8668H75.372V16.4598H84.9321V19.8668Z" fill="#A0A0A0"/>
<path id="Vector_7" d="M65.3035 16.459C67.0147 16.459 68.3995 15.0676 68.3995 13.3483V10.0316C68.3995 8.31651 67.0147 6.9209 65.3035 6.9209H55.5614C53.8544 6.9209 52.4653 8.31651 52.4653 10.0316V19.8198C52.4653 21.5391 53.8544 22.9305 55.5614 22.9305H67.9435V19.866H55.6534V16.459H65.3035ZM55.6534 9.98746H65.2135V13.3945H55.6534V9.98746Z" fill="#A0A0A0"/>
<path id="Vector_8" d="M107.732 6.92383H95.4584C93.7493 6.92383 92.3623 8.31523 92.3623 10.0345V22.9334H95.5483V9.99039H99.9999V22.9334H103.186V9.99039H107.638V22.9334H110.824V10.0345C110.824 8.31734 109.437 6.92383 107.727 6.92383H107.732Z" fill="#A0A0A0"/>
<path id="Vector_9" d="M130.347 7.38184V20.3249H125.896V7.38184H122.71V20.3249H118.258V7.38184H115.072V20.2807C115.072 21.9979 116.457 23.3914 118.168 23.3914H130.442C132.151 23.3914 133.538 22 133.538 20.2807V7.38184H130.352H130.347Z" fill="#A0A0A0"/>
<path id="Vector_10" d="M169.801 6.923V9.98746H161.151V22.9305H157.965V10.0316C157.965 8.31441 159.352 6.9209 161.061 6.9209H169.801V6.923Z" fill="#A0A0A0"/>
</g>
<defs>
<clipPath id="clip0_45_727">
<rect width="205" height="27" fill="white"/>
</clipPath>
</defs>
</svg>
