<svg width="163" height="21" viewBox="0 0 163 21" fill="none" xmlns="http://www.w3.org/2000/svg">
<g id="Layer_1" clip-path="url(#clip0_356_1986)">
<path id="Vector" d="M15.8438 5.58739C13.6382 5.58739 13.1126 7.19271 10.0005 8.67053C7.50879 9.85409 4.6595 8.45474 4.43994 5.84078C4.21872 3.94774 5.7573 1.96642 7.81152 1.83891C7.9346 1.834 8.05935 1.83073 8.18244 1.83237C9.14052 1.8242 10.0969 2.29173 10.7639 2.8737C11.8068 3.78263 14.5048 3.35105 14.5048 1.98767C14.5048 0.923448 12.6834 0.38398 11.4891 0.163289C5.3265 -0.981036 -0.560039 4.03765 0.0437514 10.5668C0.0437514 10.5734 0.0437514 10.5799 0.0437514 10.5848C0.215075 12.7868 1.18313 14.9839 3.01779 16.6252H3.01945C3.37042 16.9603 3.75298 17.2628 4.15218 17.539C4.1422 17.5521 2.52045 20.1841 2.51047 20.1988C2.38073 20.408 2.38406 20.9688 3.0444 20.9933C4.85245 21.0587 6.26628 20.6124 7.39735 19.2948C7.52043 19.1509 7.62855 18.9972 7.72835 18.837C8.12256 18.2011 9.29022 16.3113 9.93227 15.2716C11.9316 15.2471 13.8411 14.0963 14.7925 12.4027C15.1318 12.4893 15.4728 12.5776 15.8122 12.6642C14.8008 14.5998 12.8531 15.9828 10.556 16.2345L9.91064 17.2808C12.8198 17.2693 15.5959 15.5152 16.8218 12.9241C17.1578 13.0108 17.4938 13.0974 17.8281 13.1841C16.4026 16.3391 13.0111 18.497 9.29687 18.2747L8.70473 19.2294C9.9672 19.3683 11.2663 19.267 12.4871 18.9237C15.2982 18.1504 17.6884 16.0792 18.8278 13.4391C19.0191 13.0124 19.2802 12.2833 19.4715 11.3172C20.1368 7.96432 18.5899 5.58412 15.8421 5.58412L15.8438 5.58739ZM11.3012 9.96198C11.0733 9.71513 11.3328 9.18057 12.0963 8.63293C12.7699 8.14904 13.4186 7.639 14.0108 8.33214C14.7443 9.19038 11.6655 10.356 11.3012 9.96198Z" fill="black"/>
<path id="Vector_2" d="M142.479 11.0655L149.369 17.835H145.937L140.613 12.6022L139.232 13.7416V17.835H136.699V5.38477H139.232V10.6323L140.758 9.37192L145.596 5.38477H149.369L142.479 11.0655Z" fill="black"/>
<path id="Vector_3" d="M119.766 5.38477H112.02C110.663 5.38477 109.559 6.47024 109.559 7.8042V15.4172C109.559 16.7545 110.663 17.8367 112.02 17.8367H119.766C121.127 17.8367 122.228 16.7545 122.228 15.4172V7.8042C122.228 6.47024 121.127 5.38477 119.766 5.38477ZM119.693 15.4516H112.092V7.76823H119.693V15.4516Z" fill="black"/>
<path id="Vector_4" d="M152.865 7.76823V10.4182H160.538C161.897 10.4182 163 11.502 163 12.8376V15.4172C163 16.7528 161.897 17.8367 160.538 17.8367H151.056V15.4532H160.467V12.8033H152.794C151.435 12.8033 150.332 11.7194 150.332 10.3838V7.8042C150.332 6.46861 151.435 5.38477 152.794 5.38477H162.276V7.76823H152.865Z" fill="black"/>
<path id="Vector_5" d="M38.3434 7.8042C38.3434 6.47024 37.2423 5.38477 35.8817 5.38477H25.6738V17.835H35.8817C37.2423 17.835 38.3434 16.7528 38.3434 15.4156V12.836C38.3434 12.388 38.2203 11.9679 37.9991 11.6083C38.2203 11.2486 38.3434 10.8285 38.3434 10.3806V7.80093V7.8042ZM28.2087 7.76823H35.8102V10.4182H28.2087V7.76823ZM35.8102 15.4516H28.2087V12.8016H35.8102V15.4516Z" fill="black"/>
<path id="Vector_6" d="M67.6044 5.38477H58.4826V7.76823H67.5312V10.4182H59.8582C58.5009 10.4182 57.3965 11.5036 57.3965 12.8376V15.4172C57.3965 16.7545 58.5009 17.8367 59.8582 17.8367H67.6044C68.965 17.8367 70.0661 16.7545 70.0661 15.4172V7.8042C70.0661 6.47024 68.965 5.38477 67.6044 5.38477ZM67.5312 15.4516H59.9297V12.8016H67.5312V15.4516Z" fill="black"/>
<path id="Vector_7" d="M51.9247 12.8013C53.2853 12.8013 54.3864 11.7191 54.3864 10.3819V7.80224C54.3864 6.46829 53.2853 5.38281 51.9247 5.38281H44.1785C42.8213 5.38281 41.7168 6.46829 41.7168 7.80224V15.4153C41.7168 16.7525 42.8213 17.8347 44.1785 17.8347H54.0238V15.4512H44.2517V12.8013H51.9247ZM44.2517 7.76791H51.8531V10.4178H44.2517V7.76791Z" fill="black"/>
<path id="Vector_8" d="M85.66 5.38477H75.9012C74.5422 5.38477 73.4395 6.46697 73.4395 7.8042V17.8367H75.9727V7.76987H79.5123V17.8367H82.0455V7.76987H85.5851V17.8367H88.1184V7.8042C88.1184 6.46861 87.0156 5.38477 85.6566 5.38477H85.66Z" fill="black"/>
<path id="Vector_9" d="M103.643 5.74121V15.808H100.103V5.74121H97.5699V15.808H94.0303V5.74121H91.4971V15.7737C91.4971 17.1093 92.5982 18.1931 93.9588 18.1931H103.718C105.077 18.1931 106.179 17.1109 106.179 15.7737V5.74121H103.646H103.643Z" fill="black"/>
<path id="Vector_10" d="M135.013 5.38445V7.76791H128.135V17.8347H125.602V7.80224C125.602 6.46665 126.704 5.38281 128.063 5.38281H135.013V5.38445Z" fill="black"/>
</g>
<defs>
<clipPath id="clip0_356_1986">
<rect width="163" height="21" fill="white"/>
</clipPath>
</defs>
</svg>
