<svg width="150" height="150" viewBox="0 0 150 150" fill="none" xmlns="http://www.w3.org/2000/svg">
<g id="Layer_1" clip-path="url(#clip0_406_2337)">
<path id="Vector" d="M122.42 40.2784H114.676V32.1458C114.676 28.8787 112.02 26.2227 108.755 26.2227H99.5534C96.2892 26.2227 93.6303 28.8787 93.6303 32.1458V40.1667C84.7426 36.0358 74.1568 34.9546 63.2066 38.254C50.3261 42.1352 40.2192 52.3156 36.3821 65.2108C31.8075 80.5886 35.8856 95.2114 44.8643 105.418L38.4975 114.103C36.8345 116.368 38.4534 119.565 41.2652 119.565H78.3994L78.3759 119.5C100.317 118.328 117.746 100.171 117.746 77.9385C117.746 72.3767 116.656 67.0676 114.676 62.2169V60.5481H122.42C125.688 60.5481 128.344 57.8891 128.344 54.6249V46.2015C128.344 42.9344 125.688 40.2784 122.42 40.2784Z" fill="url(#paint0_linear_406_2337)"/>
<path id="Vector_2" d="M122.708 0H27.2917C12.2189 0 0 12.2189 0 27.2917V122.708C0 137.781 12.2189 150 27.2917 150H122.708C137.781 150 150 137.781 150 122.708V27.2917C150 12.2189 137.781 0 122.708 0Z" fill="#1CAE81"/>
<g id="Vector_3" filter="url(#filter0_d_406_2337)">
<path d="M122.42 40.2784H114.676V32.1458C114.676 28.8787 112.02 26.2227 108.755 26.2227H99.5534C96.2892 26.2227 93.6303 28.8787 93.6303 32.1458V40.1667C84.7426 36.0358 74.1568 34.9546 63.2066 38.254C50.3261 42.1352 40.2192 52.3156 36.3821 65.2108C31.8075 80.5886 35.8856 95.2114 44.8643 105.418L38.4975 114.103C36.8345 116.368 38.4534 119.565 41.2652 119.565H78.3994L78.3759 119.5C100.317 118.328 117.746 100.171 117.746 77.9385C117.746 72.3767 116.656 67.0676 114.676 62.2169V60.5481H122.42C125.688 60.5481 128.344 57.8891 128.344 54.6249V46.2015C128.344 42.9344 125.688 40.2784 122.42 40.2784Z" fill="url(#paint1_radial_406_2337)"/>
</g>
<g id="Group">
<path id="Vector_4" d="M78.3964 68.3339C78.3964 69.6472 77.3328 73.4403 76.0195 73.4403C74.7062 73.4403 73.6426 69.6472 73.6426 68.3339C73.6426 67.0206 74.7062 65.957 76.0195 65.957C77.3328 65.957 78.3964 67.0206 78.3964 68.3339Z" fill="#1CAE81"/>
<path id="Vector_5" d="M67.1789 79.5516C68.4922 79.5516 72.2853 78.4881 72.2853 77.1748C72.2853 75.8614 68.4922 74.7979 67.1789 74.7979C65.8656 74.7979 64.802 75.8614 64.802 77.1748C64.802 78.4881 65.8656 79.5516 67.1789 79.5516Z" fill="#1CAE81"/>
<path id="Vector_6" d="M85.06 79.5516C83.7467 79.5516 79.9536 78.4881 79.9536 77.1748C79.9536 75.8614 83.7467 74.7979 85.06 74.7979C86.3733 74.7979 87.4369 75.8614 87.4369 77.1748C87.4369 78.4881 86.3733 79.5516 85.06 79.5516Z" fill="#1CAE81"/>
<path id="Vector_7" d="M78.3964 86.2148C78.3964 84.9014 77.3328 81.1084 76.0195 81.1084C74.7062 81.1084 73.6426 84.9014 73.6426 86.2148C73.6426 87.5281 74.7062 88.5917 76.0195 88.5917C77.3328 88.5917 78.3964 87.5281 78.3964 86.2148Z" fill="#1CAE81"/>
</g>
<path id="Vector_8" d="M125.112 54.6245C125.112 56.1024 123.901 57.3158 122.42 57.3158H112.099C111.738 57.3158 111.444 57.6066 111.444 57.971V68.6802C111.444 70.161 110.233 71.3715 108.755 71.3715H99.5534C98.0726 71.3715 96.8622 70.161 96.8622 68.6802V57.971C96.8622 57.6066 96.5684 57.3158 96.207 57.3158H85.8855C84.4077 57.3158 83.1943 56.1024 83.1943 54.6245V46.2011C83.1943 44.7203 84.4077 43.5098 85.8855 43.5098H96.207C96.5684 43.5098 96.8622 43.216 96.8622 42.8546V32.1454C96.8622 30.6646 98.0726 29.4541 99.5534 29.4541H108.755C110.233 29.4541 111.444 30.6646 111.444 32.1454V42.8546C111.444 43.216 111.738 43.5098 112.099 43.5098H122.42C123.901 43.5098 125.112 44.7203 125.112 46.2011V54.6245Z" fill="#1CAE81"/>
</g>
<defs>
<filter id="filter0_d_406_2337" x="6.15213" y="-2.11734" width="173.211" height="172.703" filterUnits="userSpaceOnUse" color-interpolation-filters="sRGB">
<feFlood flood-opacity="0" result="BackgroundImageFix"/>
<feColorMatrix in="SourceAlpha" type="matrix" values="0 0 0 0 0 0 0 0 0 0 0 0 0 0 0 0 0 0 127 0" result="hardAlpha"/>
<feOffset dx="11.34" dy="11.34"/>
<feGaussianBlur stdDeviation="19.84"/>
<feColorMatrix type="matrix" values="0 0 0 0 0 0 0 0 0 0.117647 0 0 0 0 0.0705882 0 0 0 0.3 0"/>
<feBlend mode="normal" in2="BackgroundImageFix" result="effect1_dropShadow_406_2337"/>
<feBlend mode="normal" in="SourceGraphic" in2="effect1_dropShadow_406_2337" result="shape"/>
</filter>
<linearGradient id="paint0_linear_406_2337" x1="47.82" y1="32.3338" x2="129.739" y2="144.826" gradientUnits="userSpaceOnUse">
<stop offset="0.19" stop-color="white"/>
<stop offset="0.3" stop-color="#FBFDFD"/>
<stop offset="0.39" stop-color="#F1FAF7"/>
<stop offset="0.48" stop-color="#DFF3ED"/>
<stop offset="0.56" stop-color="#C6EADF"/>
<stop offset="0.65" stop-color="#A6DFCD"/>
<stop offset="0.72" stop-color="#7ED1B7"/>
<stop offset="0.8" stop-color="#51C09E"/>
<stop offset="0.88" stop-color="#1CAE81"/>
</linearGradient>
<radialGradient id="paint1_radial_406_2337" cx="0" cy="0" r="1" gradientUnits="userSpaceOnUse" gradientTransform="translate(61.248 44.6393) rotate(62.21) scale(120.005 151.207)">
<stop offset="0.39" stop-color="white"/>
<stop offset="0.43" stop-color="#F6FBFA"/>
<stop offset="0.51" stop-color="#DDF3EC"/>
<stop offset="0.6" stop-color="#B6E5D6"/>
<stop offset="0.71" stop-color="#7FD1B8"/>
<stop offset="0.83" stop-color="#3AB892"/>
<stop offset="0.88" stop-color="#1CAE81"/>
</radialGradient>
<clipPath id="clip0_406_2337">
<rect width="150" height="150" fill="white"/>
</clipPath>
</defs>
</svg>
