<svg width="163" height="21" viewBox="0 0 163 21" fill="none" xmlns="http://www.w3.org/2000/svg">
<g id="Layer_1" clip-path="url(#clip0_52_6)">
<path id="Vector" d="M15.8434 5.58762C13.6378 5.58762 13.1122 7.19294 10.0001 8.67076C7.50842 9.85432 4.65914 8.45497 4.43958 5.841C4.21835 3.94796 5.75693 1.96665 7.81115 1.83914C7.93424 1.83423 8.05899 1.83096 8.18207 1.8326C9.14015 1.82442 10.0966 2.29196 10.7636 2.87393C11.8065 3.78285 14.5044 3.35128 14.5044 1.9879C14.5044 0.923677 12.6831 0.384209 11.4888 0.163518C5.32613 -0.980807 -0.560405 4.03788 0.0433852 10.5671C0.0433852 10.5736 0.0433852 10.5801 0.0433852 10.585C0.214709 12.7871 1.18277 14.9842 3.01743 16.6255H3.01909C3.37005 16.9606 3.75262 17.263 4.15182 17.5393C4.14184 17.5524 2.52009 20.1843 2.51011 20.199C2.38037 20.4083 2.3837 20.969 3.04404 20.9935C4.85208 21.0589 6.26591 20.6126 7.39698 19.295C7.52007 19.1511 7.62818 18.9975 7.72798 18.8373C8.12219 18.2014 9.28986 16.3116 9.9319 15.2719C11.9312 15.2474 13.8407 14.0965 14.7922 12.4029C15.1315 12.4895 15.4725 12.5778 15.8118 12.6645C14.8005 14.6 12.8527 15.983 10.5557 16.2347L9.91028 17.281C12.8194 17.2695 15.5956 15.5155 16.8214 12.9244C17.1574 13.011 17.4934 13.0977 17.8277 13.1843C16.4023 16.3394 13.0107 18.4972 9.29651 18.2749L8.70436 19.2296C9.96683 19.3686 11.2659 19.2672 12.4868 18.9239C15.2978 18.1507 17.688 16.0794 18.8274 13.4393C19.0187 13.0127 19.2798 12.2836 19.4711 11.3174C20.1365 7.96455 18.5896 5.58435 15.8417 5.58435L15.8434 5.58762ZM11.3008 9.96221C11.0729 9.71536 11.3324 9.1808 12.0959 8.63316C12.7695 8.14927 13.4182 7.63923 14.0104 8.33236C14.7439 9.19061 11.6651 10.3562 11.3008 9.96221Z" fill="white"/>
<path id="Vector_2" d="M142.479 11.0656L149.369 17.8351H145.938L140.613 12.6023L139.233 13.7417V17.8351H136.699V5.38486H139.233V10.6324L140.758 9.37202L145.597 5.38486H149.369L142.479 11.0656Z" fill="white"/>
<path id="Vector_3" d="M119.767 5.38486H112.021C110.663 5.38486 109.559 6.47034 109.559 7.8043V15.4173C109.559 16.7545 110.663 17.8368 112.021 17.8368H119.767C121.127 17.8368 122.228 16.7545 122.228 15.4173V7.8043C122.228 6.47034 121.127 5.38486 119.767 5.38486ZM119.693 15.4517H112.092V7.76833H119.693V15.4517Z" fill="white"/>
<path id="Vector_4" d="M152.865 7.76833V10.4183H160.538C161.897 10.4183 163 11.5021 163 12.8377V15.4173C163 16.7529 161.897 17.8368 160.538 17.8368H151.056V15.4533H160.467V12.8034H152.794C151.435 12.8034 150.332 11.7195 150.332 10.3839V7.8043C150.332 6.4687 151.435 5.38486 152.794 5.38486H162.276V7.76833H152.865Z" fill="white"/>
<path id="Vector_5" d="M38.3432 7.8043C38.3432 6.47034 37.2421 5.38486 35.8815 5.38486H25.6736V17.8351H35.8815C37.2421 17.8351 38.3432 16.7529 38.3432 15.4157V12.8361C38.3432 12.3881 38.2201 11.968 37.9989 11.6084C38.2201 11.2487 38.3432 10.8286 38.3432 10.3807V7.80103V7.8043ZM28.2085 7.76833H35.8099V10.4183H28.2085V7.76833ZM35.8099 15.4517H28.2085V12.8017H35.8099V15.4517Z" fill="white"/>
<path id="Vector_6" d="M67.6045 5.38486H58.4828V7.76833H67.5314V10.4183H59.8584C58.5011 10.4183 57.3967 11.5037 57.3967 12.8377V15.4173C57.3967 16.7545 58.5011 17.8368 59.8584 17.8368H67.6045C68.9651 17.8368 70.0663 16.7545 70.0663 15.4173V7.8043C70.0663 6.47034 68.9651 5.38486 67.6045 5.38486ZM67.5314 15.4517H59.9299V12.8017H67.5314V15.4517Z" fill="white"/>
<path id="Vector_7" d="M51.9243 12.8017C53.2849 12.8017 54.386 11.7195 54.386 10.3823V7.80266C54.386 6.46871 53.2849 5.38323 51.9243 5.38323H44.1782C42.8209 5.38323 41.7164 6.46871 41.7164 7.80266V15.4157C41.7164 16.7529 42.8209 17.8351 44.1782 17.8351H54.0234V15.4517H44.2514V12.8017H51.9243ZM44.2514 7.76833H51.8528V10.4183H44.2514V7.76833Z" fill="white"/>
<path id="Vector_8" d="M85.66 5.38486H75.9012C74.5422 5.38486 73.4395 6.46707 73.4395 7.8043V17.8368H75.9727V7.76996H79.5123V17.8368H82.0455V7.76996H85.5851V17.8368H88.1184V7.8043C88.1184 6.4687 87.0156 5.38486 85.6566 5.38486H85.66Z" fill="white"/>
<path id="Vector_9" d="M103.642 5.74124V15.808H100.103V5.74124H97.5695V15.808H94.0299V5.74124H91.4966V15.7737C91.4966 17.1093 92.5978 18.1931 93.9584 18.1931H103.717C105.076 18.1931 106.179 17.1109 106.179 15.7737V5.74124H103.646H103.642Z" fill="white"/>
<path id="Vector_10" d="M135.013 5.38487V7.76833H128.135V17.8351H125.602V7.80266C125.602 6.46707 126.704 5.38323 128.063 5.38323H135.013V5.38487Z" fill="white"/>
</g>
<defs>
<clipPath id="clip0_52_6">
<rect width="163" height="21" fill="white"/>
</clipPath>
</defs>
</svg>
