<svg width="224" height="49" viewBox="0 0 224 49" fill="none" xmlns="http://www.w3.org/2000/svg">
<g id="&#235;&#161;&#156;&#234;&#179;&#160;" clip-path="url(#clip0_903_6246)">
<path id="Vector" d="M174.831 9.52V49H184.665V29.19H214.166V49H224V9.52C224 4.256 219.729 0 214.447 0H184.384C179.102 0 174.831 4.256 174.831 9.52ZM214.166 19.81H184.665V9.38H214.166V19.81Z" fill="white"/>
<path id="Vector_2" d="M126.406 9.38V39.62H165.741V49H126.125C120.843 49 116.572 44.744 116.572 39.48V9.52C116.572 4.256 120.843 0 126.125 0H165.741V9.38H126.406Z" fill="white"/>
<path id="Vector_3" d="M0 9.52V39.48C0 44.744 4.27068 49 9.55284 49H39.6162C44.8983 49 49.169 44.744 49.169 39.48V9.52C49.169 4.256 44.8983 0 39.6162 0H9.55284C4.27068 0 0 4.256 0 9.52ZM39.3352 39.62H9.8338V9.38H39.3352V39.62Z" fill="white"/>
<g id="Group">
<path id="Vector_4" d="M68.1199 29.1899H58.2861V48.9999H68.1199V29.1899Z" fill="white"/>
<path id="Vector_5" d="M58.2861 0V29.19H97.9023C103.184 29.19 107.455 24.934 107.455 19.67V9.52C107.455 4.256 103.184 0 97.9023 0L58.2861 0ZM97.6213 19.81H68.1199V9.38H97.6213V19.81Z" fill="white"/>
<path id="Vector_6" d="M107.469 29.3301V49.0001H97.6355V29.1901H74.1748V19.8101H97.9164C103.199 19.8101 107.469 24.0661 107.469 29.3301Z" fill="white"/>
</g>
</g>
<defs>
<clipPath id="clip0_903_6246">
<rect width="224" height="49" fill="white"/>
</clipPath>
</defs>
</svg>
