<svg width="179" height="39" viewBox="0 0 179 39" fill="none" xmlns="http://www.w3.org/2000/svg">
<g id="&#235;&#161;&#156;&#234;&#179;&#160;" clip-path="url(#clip0_919_6523)">
<path id="Vector" d="M139.709 7.57714V39H147.567V23.2329H171.142V39H179V7.57714C179 3.38743 175.588 0 171.367 0H147.343C143.122 0 139.709 3.38743 139.709 7.57714ZM171.142 15.7671H147.567V7.46571H171.142V15.7671Z" fill="black"/>
<path id="Vector_2" d="M101.013 7.46571V31.5343H132.446V39H100.788C96.567 39 93.1543 35.6126 93.1543 31.4229V7.57714C93.1543 3.38743 96.567 0 100.788 0H132.446V7.46571H101.013Z" fill="black"/>
<path id="Vector_3" d="M0 7.57714V31.4229C0 35.6126 3.41273 39 7.63374 39H31.6576C35.8786 39 39.2913 35.6126 39.2913 31.4229V7.57714C39.2913 3.38743 35.8786 0 31.6576 0H7.63374C3.41273 0 0 3.38743 0 7.57714ZM31.4331 31.5343H7.85826V7.46571H31.4331V31.5343Z" fill="black"/>
<g id="Group">
<path id="Vector_4" d="M54.4354 23.2329H46.5771V39.0001H54.4354V23.2329Z" fill="black"/>
<path id="Vector_5" d="M46.5771 0V23.2329H78.2347C82.4557 23.2329 85.8685 19.8454 85.8685 15.6557V7.57714C85.8685 3.38743 82.4557 0 78.2347 0L46.5771 0ZM78.0102 15.7671H54.4354V7.46571H78.0102V15.7671Z" fill="black"/>
<path id="Vector_6" d="M85.8793 23.3442V38.9999H78.021V23.2328H59.2734V15.7671H78.2455C82.4665 15.7671 85.8793 19.1545 85.8793 23.3442Z" fill="black"/>
</g>
</g>
<defs>
<clipPath id="clip0_919_6523">
<rect width="179" height="39" fill="white"/>
</clipPath>
</defs>
</svg>
